%TF.GenerationSoftware,KiCad,Pcbnew,(7.0.0-0)*%
%TF.CreationDate,2023-03-23T20:34:07-04:00*%
%TF.ProjectId,EE5143_7Digit_FPGA,45453531-3433-45f3-9744-696769745f46,rev?*%
%TF.SameCoordinates,Original*%
%TF.FileFunction,Copper,L2,Bot*%
%TF.FilePolarity,Positive*%
%FSLAX46Y46*%
G04 Gerber Fmt 4.6, Leading zero omitted, Abs format (unit mm)*
G04 Created by KiCad (PCBNEW (7.0.0-0)) date 2023-03-23 20:34:07*
%MOMM*%
%LPD*%
G01*
G04 APERTURE LIST*
%TA.AperFunction,ComponentPad*%
%ADD10R,1.050000X1.500000*%
%TD*%
%TA.AperFunction,ComponentPad*%
%ADD11O,1.050000X1.500000*%
%TD*%
%TA.AperFunction,ComponentPad*%
%ADD12R,1.500000X1.500000*%
%TD*%
%TA.AperFunction,ComponentPad*%
%ADD13C,1.500000*%
%TD*%
%TA.AperFunction,ComponentPad*%
%ADD14O,1.700000X1.700000*%
%TD*%
%TA.AperFunction,ComponentPad*%
%ADD15R,1.700000X1.700000*%
%TD*%
%TA.AperFunction,ViaPad*%
%ADD16C,0.800000*%
%TD*%
%TA.AperFunction,Conductor*%
%ADD17C,0.250000*%
%TD*%
G04 APERTURE END LIST*
D10*
%TO.P,Q3,1,E*%
%TO.N,GNDREF*%
X123824999Y-60324999D03*
D11*
%TO.P,Q3,2,B*%
%TO.N,Net-(Q3-B)*%
X125094999Y-60324999D03*
%TO.P,Q3,3,C*%
%TO.N,D3*%
X126364999Y-60324999D03*
%TD*%
D12*
%TO.P,U1,1,e*%
%TO.N,Net-(U1-e)*%
X102234999Y-50164999D03*
D13*
%TO.P,U1,2,d*%
%TO.N,Net-(U1-d)*%
X102235000Y-52705000D03*
%TO.P,U1,3,DPX*%
%TO.N,Net-(U1-DPX)*%
X102235000Y-55245000D03*
%TO.P,U1,4,c*%
%TO.N,Net-(U1-c)*%
X102235000Y-57785000D03*
%TO.P,U1,5,g*%
%TO.N,Net-(U1-g)*%
X102235000Y-60325000D03*
%TO.P,U1,6,CC4*%
%TO.N,D4*%
X102235000Y-62865000D03*
%TO.P,U1,7,b*%
%TO.N,Net-(U1-b)*%
X117475000Y-62865000D03*
%TO.P,U1,8,CC3*%
%TO.N,D3*%
X117475000Y-60325000D03*
%TO.P,U1,9,CC2*%
%TO.N,D2*%
X117475000Y-57785000D03*
%TO.P,U1,10,f*%
%TO.N,Net-(U1-f)*%
X117475000Y-55245000D03*
%TO.P,U1,11,a*%
%TO.N,Net-(U1-a)*%
X117475000Y-52705000D03*
%TO.P,U1,12,CC1*%
%TO.N,D1*%
X117475000Y-50165000D03*
%TD*%
D11*
%TO.P,Q4,3,C*%
%TO.N,D4*%
X126364999Y-68579999D03*
%TO.P,Q4,2,B*%
%TO.N,Net-(Q4-B)*%
X125094999Y-68579999D03*
D10*
%TO.P,Q4,1,E*%
%TO.N,GNDREF*%
X123824999Y-68579999D03*
%TD*%
%TO.P,Q2,1,E*%
%TO.N,GNDREF*%
X123824999Y-52429999D03*
D11*
%TO.P,Q2,2,B*%
%TO.N,Net-(Q2-B)*%
X125094999Y-52429999D03*
%TO.P,Q2,3,C*%
%TO.N,D2*%
X126364999Y-52429999D03*
%TD*%
D10*
%TO.P,Q1,1,E*%
%TO.N,GNDREF*%
X123824999Y-44449999D03*
D11*
%TO.P,Q1,2,B*%
%TO.N,Net-(Q1-B)*%
X125094999Y-44449999D03*
%TO.P,Q1,3,C*%
%TO.N,D1*%
X126364999Y-44449999D03*
%TD*%
D14*
%TO.P,J1,13,Pin_13*%
%TO.N,GNDREF*%
X142239999Y-73659999D03*
%TO.P,J1,12,Pin_12*%
%TO.N,Do4*%
X142239999Y-71119999D03*
%TO.P,J1,11,Pin_11*%
%TO.N,Do3*%
X142239999Y-68579999D03*
%TO.P,J1,10,Pin_10*%
%TO.N,Do2*%
X142239999Y-66039999D03*
%TO.P,J1,9,Pin_9*%
%TO.N,Do1*%
X142239999Y-63499999D03*
%TO.P,J1,8,Pin_8*%
%TO.N,DP*%
X142239999Y-60959999D03*
%TO.P,J1,7,Pin_7*%
%TO.N,G*%
X142239999Y-58419999D03*
%TO.P,J1,6,Pin_6*%
%TO.N,F*%
X142239999Y-55879999D03*
%TO.P,J1,5,Pin_5*%
%TO.N,E*%
X142239999Y-53339999D03*
%TO.P,J1,4,Pin_4*%
%TO.N,D*%
X142239999Y-50799999D03*
%TO.P,J1,3,Pin_3*%
%TO.N,C*%
X142239999Y-48259999D03*
%TO.P,J1,2,Pin_2*%
%TO.N,B*%
X142239999Y-45719999D03*
D15*
%TO.P,J1,1,Pin_1*%
%TO.N,A*%
X142239999Y-43179999D03*
%TD*%
D16*
%TO.N,Net-(U1-d)*%
X105664000Y-52705000D03*
%TO.N,Net-(U1-e)*%
X102235000Y-43180000D03*
%TO.N,Net-(U1-c)*%
X112268000Y-51181000D03*
X129921000Y-46609000D03*
%TO.N,Net-(U1-g)*%
X113157000Y-61976000D03*
%TO.N,Net-(U1-DPX)*%
X105283000Y-55245000D03*
%TO.N,Net-(U1-b)*%
X128905000Y-56515000D03*
X128905000Y-54610000D03*
X122682000Y-56515000D03*
%TO.N,Net-(U1-f)*%
X119253000Y-54102000D03*
%TO.N,D4*%
X121412000Y-66675000D03*
%TO.N,D3*%
X121539000Y-58420000D03*
%TO.N,D2*%
X121539000Y-50800000D03*
%TO.N,D4*%
X126365000Y-66675000D03*
%TO.N,D3*%
X126365000Y-58420000D03*
%TO.N,D2*%
X126365000Y-50800000D03*
%TO.N,Net-(U1-DPX)*%
X132715000Y-60960000D03*
%TO.N,Net-(U1-g)*%
X132715000Y-58420000D03*
%TO.N,Net-(U1-f)*%
X132715000Y-55880000D03*
%TO.N,Net-(U1-e)*%
X132715000Y-53340000D03*
%TO.N,Net-(U1-d)*%
X132715000Y-50800000D03*
%TO.N,Net-(U1-b)*%
X132715000Y-45720000D03*
%TD*%
D17*
%TO.N,Net-(U1-d)*%
X132715000Y-50800000D02*
X134239000Y-50800000D01*
X113284000Y-42037000D02*
X110363000Y-44958000D01*
X107061000Y-52705000D02*
X105664000Y-52705000D01*
X134239000Y-50800000D02*
X135636000Y-49403000D01*
X135636000Y-49403000D02*
X135636000Y-43561000D01*
X135636000Y-43561000D02*
X134112000Y-42037000D01*
X134112000Y-42037000D02*
X113284000Y-42037000D01*
X110363000Y-44958000D02*
X110363000Y-49403000D01*
X110363000Y-49403000D02*
X107061000Y-52705000D01*
%TO.N,Net-(U1-e)*%
X132715000Y-53340000D02*
X137795000Y-53340000D01*
X137795000Y-53340000D02*
X139192000Y-51943000D01*
X139192000Y-51943000D02*
X139192000Y-40894000D01*
X139192000Y-40894000D02*
X137287000Y-38989000D01*
X137287000Y-38989000D02*
X103759000Y-38989000D01*
X102235000Y-40513000D02*
X102235000Y-43180000D01*
X103759000Y-38989000D02*
X102235000Y-40513000D01*
%TO.N,Net-(U1-c)*%
X116840000Y-46609000D02*
X112268000Y-51181000D01*
X129921000Y-46609000D02*
X116840000Y-46609000D01*
%TO.N,Net-(U1-g)*%
X132715000Y-58420000D02*
X131191000Y-58420000D01*
X131191000Y-58420000D02*
X125095000Y-64516000D01*
X125095000Y-64516000D02*
X115697000Y-64516000D01*
X115697000Y-64516000D02*
X113157000Y-61976000D01*
%TO.N,Net-(U1-DPX)*%
X105283000Y-55245000D02*
X108712000Y-55245000D01*
X108712000Y-55245000D02*
X110617000Y-57150000D01*
X110617000Y-57150000D02*
X110617000Y-61468000D01*
X110617000Y-61468000D02*
X114681000Y-65532000D01*
X114681000Y-65532000D02*
X126111000Y-65532000D01*
X126111000Y-65532000D02*
X130683000Y-60960000D01*
X130683000Y-60960000D02*
X132715000Y-60960000D01*
%TO.N,Net-(U1-b)*%
X122682000Y-56515000D02*
X128905000Y-56515000D01*
X128905000Y-49530000D02*
X128905000Y-54610000D01*
X132715000Y-45720000D02*
X128905000Y-49530000D01*
%TO.N,Net-(U1-f)*%
X119634000Y-54102000D02*
X121285000Y-55753000D01*
X119253000Y-54102000D02*
X119634000Y-54102000D01*
X132588000Y-55753000D02*
X132715000Y-55880000D01*
X121285000Y-55753000D02*
X132588000Y-55753000D01*
%TO.N,D4*%
X126365000Y-66675000D02*
X121412000Y-66675000D01*
%TO.N,D3*%
X121539000Y-58420000D02*
X126365000Y-58420000D01*
%TO.N,D2*%
X121539000Y-50800000D02*
X126365000Y-50800000D01*
%TD*%
M02*
