M48
; DRILL file {KiCad (7.0.0-0)} date Thursday, March 23, 2023 at 08:34:04 PM
; FORMAT={-:-/ absolute / inch / decimal}
; #@! TF.CreationDate,2023-03-23T20:34:04-04:00
; #@! TF.GenerationSoftware,Kicad,Pcbnew,(7.0.0-0)
; #@! TF.FileFunction,Plated,1,2,PTH
FMAT,2
INCH
; #@! TA.AperFunction,Plated,PTH,ViaDrill
T1C0.0157
; #@! TA.AperFunction,Plated,PTH,ComponentDrill
T2C0.0295
; #@! TA.AperFunction,Plated,PTH,ComponentDrill
T3C0.0394
%
G90
G05
T1
X4.025Y-1.7
X4.145Y-2.175
X4.16Y-2.075
X4.42Y-2.015
X4.455Y-2.44
X4.695Y-2.13
X4.78Y-2.625
X4.785Y-2.0
X4.785Y-2.3
X4.83Y-2.225
X4.975Y-2.0
X4.975Y-2.3
X4.975Y-2.625
X5.075Y-2.15
X5.075Y-2.225
X5.115Y-1.835
X5.225Y-1.8
X5.225Y-2.0
X5.225Y-2.1
X5.225Y-2.2
X5.225Y-2.3
X5.225Y-2.4
T2
X4.875Y-1.75
X4.875Y-2.0642
X4.875Y-2.375
X4.875Y-2.7
X4.925Y-1.75
X4.925Y-2.0642
X4.925Y-2.375
X4.925Y-2.7
X4.975Y-1.75
X4.975Y-2.0642
X4.975Y-2.375
X4.975Y-2.7
T3
X4.025Y-1.975
X4.025Y-2.075
X4.025Y-2.175
X4.025Y-2.275
X4.025Y-2.375
X4.025Y-2.475
X4.625Y-1.975
X4.625Y-2.075
X4.625Y-2.175
X4.625Y-2.275
X4.625Y-2.375
X4.625Y-2.475
X5.6Y-1.7
X5.6Y-1.8
X5.6Y-1.9
X5.6Y-2.0
X5.6Y-2.1
X5.6Y-2.2
X5.6Y-2.3
X5.6Y-2.4
X5.6Y-2.5
X5.6Y-2.6
X5.6Y-2.7
X5.6Y-2.8
X5.6Y-2.9
T0
M30
