%TF.GenerationSoftware,KiCad,Pcbnew,(7.0.0-0)*%
%TF.CreationDate,2023-03-23T20:34:07-04:00*%
%TF.ProjectId,EE5143_7Digit_FPGA,45453531-3433-45f3-9744-696769745f46,rev?*%
%TF.SameCoordinates,Original*%
%TF.FileFunction,Soldermask,Top*%
%TF.FilePolarity,Negative*%
%FSLAX46Y46*%
G04 Gerber Fmt 4.6, Leading zero omitted, Abs format (unit mm)*
G04 Created by KiCad (PCBNEW (7.0.0-0)) date 2023-03-23 20:34:07*
%MOMM*%
%LPD*%
G01*
G04 APERTURE LIST*
G04 Aperture macros list*
%AMRoundRect*
0 Rectangle with rounded corners*
0 $1 Rounding radius*
0 $2 $3 $4 $5 $6 $7 $8 $9 X,Y pos of 4 corners*
0 Add a 4 corners polygon primitive as box body*
4,1,4,$2,$3,$4,$5,$6,$7,$8,$9,$2,$3,0*
0 Add four circle primitives for the rounded corners*
1,1,$1+$1,$2,$3*
1,1,$1+$1,$4,$5*
1,1,$1+$1,$6,$7*
1,1,$1+$1,$8,$9*
0 Add four rect primitives between the rounded corners*
20,1,$1+$1,$2,$3,$4,$5,0*
20,1,$1+$1,$4,$5,$6,$7,0*
20,1,$1+$1,$6,$7,$8,$9,0*
20,1,$1+$1,$8,$9,$2,$3,0*%
G04 Aperture macros list end*
%ADD10C,3.200000*%
%ADD11R,1.050000X1.500000*%
%ADD12O,1.050000X1.500000*%
%ADD13RoundRect,0.237500X0.250000X0.237500X-0.250000X0.237500X-0.250000X-0.237500X0.250000X-0.237500X0*%
%ADD14R,1.500000X1.500000*%
%ADD15C,1.500000*%
%ADD16O,1.700000X1.700000*%
%ADD17R,1.700000X1.700000*%
G04 APERTURE END LIST*
D10*
%TO.C,REF\u002A\u002A*%
X96139000Y-80772000D03*
%TD*%
%TO.C,REF\u002A\u002A*%
X96139000Y-32004000D03*
%TD*%
%TO.C,REF\u002A\u002A*%
X140716000Y-81153000D03*
%TD*%
%TO.C,REF\u002A\u002A*%
X140589000Y-31877000D03*
%TD*%
D11*
%TO.C,Q3*%
X123824999Y-60324999D03*
D12*
X125094999Y-60324999D03*
X126364999Y-60324999D03*
%TD*%
D13*
%TO.C,R7*%
X136445000Y-58420000D03*
X134620000Y-58420000D03*
%TD*%
D14*
%TO.C,U1*%
X102234999Y-50164999D03*
D15*
X102235000Y-52705000D03*
X102235000Y-55245000D03*
X102235000Y-57785000D03*
X102235000Y-60325000D03*
X102235000Y-62865000D03*
X117475000Y-62865000D03*
X117475000Y-60325000D03*
X117475000Y-57785000D03*
X117475000Y-55245000D03*
X117475000Y-52705000D03*
X117475000Y-50165000D03*
%TD*%
D13*
%TO.C,R12*%
X136445000Y-71120000D03*
X134620000Y-71120000D03*
%TD*%
%TO.C,R11*%
X136445000Y-68580000D03*
X134620000Y-68580000D03*
%TD*%
%TO.C,R10*%
X134620000Y-66040000D03*
X136445000Y-66040000D03*
%TD*%
%TO.C,R9*%
X136445000Y-63500000D03*
X134620000Y-63500000D03*
%TD*%
%TO.C,R8*%
X136445000Y-60960000D03*
X134620000Y-60960000D03*
%TD*%
%TO.C,R6*%
X136445000Y-55880000D03*
X134620000Y-55880000D03*
%TD*%
%TO.C,R5*%
X136445000Y-53340000D03*
X134620000Y-53340000D03*
%TD*%
%TO.C,R4*%
X136445000Y-50800000D03*
X134620000Y-50800000D03*
%TD*%
%TO.C,R3*%
X136445000Y-48260000D03*
X134620000Y-48260000D03*
%TD*%
%TO.C,R2*%
X136445000Y-45720000D03*
X134620000Y-45720000D03*
%TD*%
%TO.C,R1*%
X134620000Y-43180000D03*
X136445000Y-43180000D03*
%TD*%
D12*
%TO.C,Q4*%
X126364999Y-68579999D03*
X125094999Y-68579999D03*
D11*
X123824999Y-68579999D03*
%TD*%
%TO.C,Q2*%
X123824999Y-52429999D03*
D12*
X125094999Y-52429999D03*
X126364999Y-52429999D03*
%TD*%
D11*
%TO.C,Q1*%
X123824999Y-44449999D03*
D12*
X125094999Y-44449999D03*
X126364999Y-44449999D03*
%TD*%
D16*
%TO.C,J1*%
X142239999Y-73659999D03*
X142239999Y-71119999D03*
X142239999Y-68579999D03*
X142239999Y-66039999D03*
X142239999Y-63499999D03*
X142239999Y-60959999D03*
X142239999Y-58419999D03*
X142239999Y-55879999D03*
X142239999Y-53339999D03*
X142239999Y-50799999D03*
X142239999Y-48259999D03*
X142239999Y-45719999D03*
D17*
X142239999Y-43179999D03*
%TD*%
M02*
